<svg width="606" height="606" viewBox="0 0 606 606" fill="none" xmlns="http://www.w3.org/2000/svg">
<path d="M606 303C606 470.342 470.342 606 303 606C135.658 606 0 470.342 0 303C0 135.658 135.658 0 303 0C470.342 0 606 135.658 606 303Z" fill="url(#paint0_radial_9_5)" fill-opacity="0.2"/>
<path d="M606 303C606 470.342 470.342 606 303 606C135.658 606 0 470.342 0 303C0 135.658 135.658 0 303 0C470.342 0 606 135.658 606 303Z" fill="url(#paint1_linear_9_5)" fill-opacity="0.2"/>
<path d="M567 302C567 447.803 448.803 566 303 566C157.197 566 39 447.803 39 302C39 156.197 157.197 38 303 38C448.803 38 567 156.197 567 302Z" fill="url(#paint2_radial_9_5)" fill-opacity="0.2"/>
<path d="M567 302C567 447.803 448.803 566 303 566C157.197 566 39 447.803 39 302C39 156.197 157.197 38 303 38C448.803 38 567 156.197 567 302Z" fill="url(#paint3_linear_9_5)" fill-opacity="0.2"/>
<defs>
<radialGradient id="paint0_radial_9_5" cx="0" cy="0" r="1" gradientUnits="userSpaceOnUse" gradientTransform="translate(303 303) rotate(90) scale(303)">
<stop stop-color="#444CE7" stop-opacity="0.81"/>
<stop offset="1" stop-color="#444CE7" stop-opacity="0.29"/>
</radialGradient>
<linearGradient id="paint1_linear_9_5" x1="175.047" y1="1.87602e-06" x2="360.757" y2="597.559" gradientUnits="userSpaceOnUse">
<stop stop-color="#444CE7" stop-opacity="0.81"/>
<stop offset="1" stop-opacity="0"/>
</linearGradient>
<radialGradient id="paint2_radial_9_5" cx="0" cy="0" r="1" gradientUnits="userSpaceOnUse" gradientTransform="translate(303 302) rotate(90) scale(264)">
<stop stop-color="#444CE7" stop-opacity="0.81"/>
<stop offset="1" stop-color="#444CE7" stop-opacity="0.29"/>
</radialGradient>
<linearGradient id="paint3_linear_9_5" x1="303" y1="38" x2="356.333" y2="536.667" gradientUnits="userSpaceOnUse">
<stop stop-color="#A4BCFD"/>
<stop offset="1" stop-color="#444CE7" stop-opacity="0.81"/>
</linearGradient>
</defs>
</svg>
